<?xml version="1.0" encoding="UTF-8"?>
<svg width="165px" height="46px" viewBox="0 0 165 46" version="1.1" xmlns="http://www.w3.org/2000/svg" xmlns:xlink="http://www.w3.org/1999/xlink">
    <g stroke="none" stroke-width="1" fill="none" fill-rule="evenodd">
        <g transform="translate(-60.000000, -51.000000)">
            <g transform="translate(60.000000, 51.000000)">
                <g >
                    <path d="M34.274699,41.7487167 C30.6944344,44.4181746 26.2441012,46 21.4215661,46 C9.59076181,46 0,36.4800147 0,24.7365177 C0,12.9930207 9.59076181,3.47303544 21.4215661,3.47303544 C32.8933548,3.47303544 42.2589902,12.4240038 42.816842,23.6737661 L42.8431321,23.6733436 L42.8431321,46 L37.1307145,46 L37.1307145,24.7365177 C37.1307145,16.1246199 30.0974892,9.14329738 21.4215661,9.14329738 C12.7456429,9.14329738 5.71241762,16.1246199 5.71241762,24.7365177 C5.71241762,33.3484155 12.7456429,40.3297381 21.4215661,40.3297381 C26.2185318,40.3297381 30.5133174,38.1955163 33.3947852,34.8314866 L34.275,34.2850354 L34.2745057,41.1896999 L37.1307145,38.730886 C36.3070602,39.7449439 35.7765152,40.3695196 35.5390795,40.6046132 C35.3016438,40.8397067 34.8801192,41.2204091 34.2745057,41.7467203 Z" id="形状结合" fill="#333333"></path>
                    <path d="M46.3414372,21.9822527 L50.3536865,25.9664647 L46.3414372,29.9082527 L46.3414372,21.9822527 Z" id="形状结合" fill="#52161B"></path>
                    <path d="M23.1352913,44.2989214 C11.3044871,44.2989214 1.71372528,34.7789361 1.71372528,23.0354391 C1.71372528,11.2919421 11.3044871,1.77195686 23.1352913,1.77195686 C34.6070801,1.77195686 43.9727155,10.7229253 44.5305673,21.9726875 L44.5568574,21.972265 L44.5568574,44.2989214 L38.8444398,44.2989214 L38.8444398,23.0354391 C38.8444398,14.4235413 31.8112145,7.4422188 23.1352913,7.4422188 C14.4593682,7.4422188 7.4261429,14.4235413 7.4261429,23.0354391 C7.4261429,31.6473369 14.4593682,38.6286595 23.1352913,38.6286595 C27.6402679,38.6286595 31.7023386,36.7463485 34.5668254,33.7308354 L35.9887253,32.5179569 L35.988231,39.4626446 L37.1307145,38.730886 C36.8882483,39.0768002 36.6805512,39.349411 36.5076232,39.5487183 C36.3346951,39.7480257 36.1615644,39.9143362 35.988231,40.0476497 C32.4081597,42.7170961 27.9578264,44.2989214 23.1352913,44.2989214 Z" id="形状结合" fill="#939393"></path>
                    <path d="M47.6981364,20.6355655 L51.7103857,24.6197775 L47.6981364,28.5615655 L47.6981364,20.6355655 Z" id="形状结合" fill="#7F181D"></path>
                    <path d="M24.9204218,0 C36.3922106,0 45.757846,8.9509684 46.3156978,20.2007307 L46.3419879,20.2003082 L46.3419879,42.5269646 L40.6295703,42.5269646 L40.6295703,21.2634823 C40.6295703,12.6515845 33.596345,5.67026194 24.9204218,5.67026194 C16.2444987,5.67026194 9.2112734,12.6515845 9.2112734,21.2634823 C9.2112734,29.8753801 16.2444987,36.8567026 24.9204218,36.8567026 C29.8506813,36.8567026 34.2504646,34.6022254 37.1305504,31.0751921 L37.130683,38.7368406 C33.6667086,41.1263371 29.4583483,42.5269646 24.9204218,42.5269646 C13.0896176,42.5269646 3.49885579,33.0069793 3.49885579,21.2634823 C3.49885579,9.51998529 13.0896176,0 24.9204218,0 Z" id="形状结合" fill="#FEFFFF"></path>
                    <path d="M49.1262408,19.218 L53.1384901,23.202212 L49.1262408,27.144 L49.1262408,19.218 Z" id="形状结合" fill="#ED1B24"></path>
                </g>
                <g id="编组-5" transform="translate(58.899548, 6.696282)">
                    <g id="编组-4">
                        <g id="Oxthread" fill="#FEFFFF" fill-rule="nonzero">
                            <path d="M7.89146575,0.236246914 C3.25641809,0.236246914 0,3.07120988 0,9.68612346 C0,16.301037 3.25641809,19.136 7.89146575,19.136 C12.5265134,19.136 15.7829315,16.301037 15.7829315,9.68612346 C15.7829315,3.07120988 12.5265134,0.236246914 7.89146575,0.236246914 Z M7.89146575,16.0647901 C5.79975193,16.0647901 4.63504765,14.3638123 4.63504765,9.68612346 C4.63504765,5.00843457 5.79975193,3.30745679 7.89146575,3.30745679 C9.98317956,3.30745679 11.1478838,5.00843457 11.1478838,9.68612346 C11.1478838,14.3638123 9.98317956,16.0647901 7.89146575,16.0647901 Z" id="形状"></path>
                            <polygon id="路径" points="29.8069218 5.43367901 25.2907216 5.43367901 23.3891635 9.37900247 21.4876055 5.43367901 16.9714053 5.43367901 21.2499108 11.9304691 16.9714053 18.8997531 21.4876055 18.8997531 23.3891635 14.6709333 25.2907216 18.8997531 29.8069218 18.8997531 25.5284163 11.9304691"></polygon>
                            <path d="M44.6866133,7.15828148 C44.7816912,6.68578765 44.971847,5.43367901 44.971847,3.35470617 L44.971847,0 L40.9310362,0 L40.9310362,18.8997531 L44.971847,18.8997531 L44.971847,10.6311111 C44.971847,8.88288395 45.875087,8.17414321 47.0397913,8.17414321 C48.3471124,8.17414321 48.9175798,8.81200988 48.9175798,10.6311111 L48.9175798,18.8997531 L52.9583906,18.8997531 L52.9583906,9.78062222 C52.9583906,6.63853827 51.0806021,5.1974321 48.6561156,5.1974321 C46.9922524,5.1974321 45.6136228,5.83529877 44.8292301,7.15828148 L44.6866133,7.15828148 Z" id="路径"></path>
                            <path d="M59.0909152,8.97738272 L59.0909152,5.43367901 L55.8107276,5.43367901 L55.8107276,18.8997531 L59.8753079,18.8997531 L59.8753079,11.6233481 C59.8753079,8.93013333 60.9211648,8.4812642 62.6801059,8.4812642 C63.0366481,8.4812642 63.4644986,8.50488889 63.8210408,8.57576296 L63.8210408,5.22105679 C63.4644986,5.15018272 63.0366481,5.12655802 62.6801059,5.12655802 C60.7785479,5.12655802 59.5900742,6.42591605 59.2097626,8.97738272 L59.0909152,8.97738272 Z" id="路径"></path>
                            <path d="M76.6565573,11.2926025 C76.6565573,7.9378963 74.9213856,5.1974321 70.5953412,5.1974321 C67.1249978,5.1974321 64.534125,7.55990123 64.534125,12.3793383 C64.534125,16.7262815 66.8397641,19.136 70.9281138,19.136 C73.2337529,19.136 75.1590804,18.450884 76.3000152,15.7340444 L72.7583634,14.6709333 C72.4731297,15.8049185 71.8788928,16.4191605 70.9756528,16.4191605 C69.7634095,16.4191605 68.8601695,15.5922963 68.6224747,13.3479506 L76.6565573,13.3479506 L76.6565573,11.2926025 Z M68.6462442,10.6547358 C68.9077084,8.50488889 69.8109485,7.89064691 70.8092664,7.89064691 C71.9739707,7.89064691 72.8772108,8.81200988 72.9009803,10.6547358 L68.6462442,10.6547358 Z" id="形状"></path>
                            <path d="M90.0150024,10.0168691 C90.0150024,6.96928395 87.9232885,5.1974321 84.5242536,5.1974321 C81.4817608,5.1974321 79.4613554,6.66216296 78.7958101,9.37900247 L82.242384,10.0168691 C82.5038482,8.50488889 83.1218546,7.81977284 84.2390199,7.81977284 C85.3324158,7.81977284 85.9504221,8.57576296 85.9504221,10.2058667 L85.9504221,11.0091062 C85.2848768,10.8909827 84.5717926,10.8437333 84.0488641,10.8437333 C80.4596734,10.8437333 78.2015732,12.3320889 78.2015732,15.1198025 C78.2015732,17.6476444 79.9129754,19.136 82.7177735,19.136 C84.4529452,19.136 85.7127274,18.5690074 86.5208895,17.3641481 C86.8536622,18.3800099 87.5667464,18.8997531 89.1117623,18.8997531 C89.9199245,18.8997531 90.5141613,18.8052543 91.2747845,18.521758 L91.2747845,15.6867951 C91.2272456,15.7104198 91.1559372,15.7104198 90.9420119,15.7104198 C90.3240055,15.7104198 90.0150024,15.3088 90.0150024,14.4583111 L90.0150024,10.0168691 Z M83.8824778,16.4191605 C82.8603903,16.4191605 82.242384,15.8285432 82.242384,15.0253037 C82.242384,14.009442 83.0267767,13.4188247 84.2627894,13.4188247 C84.8570263,13.4188247 85.4988021,13.4896988 85.9504221,13.6078222 C85.9504221,15.5686716 85.2611073,16.4191605 83.8824778,16.4191605 Z" id="形状"></path>
                            <path d="M101.044039,0 L101.044039,3.04758519 C101.044039,5.05568395 101.091578,5.7408 101.305503,6.70941235 L101.234195,6.70941235 C100.426032,5.71717531 99.3326366,5.1974321 97.9302376,5.1974321 C94.6025111,5.1974321 92.2255635,8.07964444 92.2255635,12.1194667 C92.2255635,16.6554074 94.150891,19.136 97.6925428,19.136 C99.1424808,19.136 100.330955,18.521758 101.186656,17.4350222 L101.281734,17.4350222 C101.186656,17.9783901 101.162886,18.3327605 101.162886,18.7580049 L101.162886,18.8997531 L105.08485,18.8997531 L105.08485,0 L101.044039,0 Z M98.8810166,16.2065383 C97.2884618,16.2065383 96.3376827,14.694558 96.3376827,12.1194667 C96.3376827,9.61524938 97.2646923,8.07964444 98.7621692,8.07964444 C100.426032,8.07964444 101.234195,9.37900247 101.234195,12.095842 C101.234195,14.7181827 100.378494,16.2065383 98.8810166,16.2065383 Z" id="形状"></path>
                        </g>
                        <g id="编组-3" transform="translate(30.282311, 0.332935)">
                            <g id="编组" transform="translate(0.000000, 5.098757)" fill="#FEFFFF" fill-rule="nonzero">
                                <path d="M5.871,0 L8.7947058,0.00198765432 L8.7947058,2.83695062 L5.87106036,2.83695062 L5.87106036,8.93212099 C5.87106036,10.231479 6.48906671,10.6803481 7.8439268,10.6803481 C8.27177735,10.6803481 8.72339738,10.5858494 8.9848616,10.4913506 L8.9848616,13.3263136 C8.27177735,13.5625605 7.22592044,13.7043086 6.32268039,13.7043086 C3.75557707,13.7043086 1.94909696,12.3813259 1.94909696,9.56998765 L1.94909696,2.83695062 L0,2.83695062 L0,0.00198765432 L1.94909696,0.00198765432 L1.949,0 L5.871,0 Z" id="形状结合"></path>
                            </g>
                            <polygon id="路径-15" fill="#ED1B24" points="1.94858175 3.47695608 5.87425611 -1.72496069e-14 5.87425611 3.47695608"></polygon>
                        </g>
                    </g>
                    <g id="编组-12" transform="translate(2.125192, 18.770450)">
                        <text id="VENTURES" font-family="KohinoorTelugu-Regular, Kohinoor Telugu" font-size="10.4104" font-weight="normal" line-spacing="16.06176" fill="#FEFFFF">
                            <tspan x="54.9344525" y="11.0934066">VENTURES</tspan>
                        </text>
                        <line x1="49.8009855" y1="8.2293194" x2="7.82886648e-16" y2="8.27629207" id="直线-2" stroke="#FEFFFF" stroke-width="0.89232" stroke-linecap="square"></line>
                    </g>
                </g>
            </g>
        </g>
    </g>
</svg>